M48
; DRILL file KiCad 10.0.7 date 2026-10-10T07:05:32
; FORMAT={-:-/ absolute / metric / decimal}
; #@! TF.CreationDate,2026-10-10T07:05:32-04:00
; #@! TF.GenerationSoftware,Kicad,Pcbnew,10.0.7
; #@! TF.FileFunction,Plated,1,2,PTH
FMAT,2
METRIC
; #@! TA.AperFunction,Plated,PTH,ComponentDrill
T1C1.000
%
G90
G05
T1
X97.7Y-93.0
X103.69Y-81.0
X105.3Y-93.0
X106.23Y-81.0
X108.77Y-81.0
X111.31Y-81.0
X119.61Y-46.87
X119.61Y-49.41
X119.61Y-51.95
X119.61Y-54.49
X119.61Y-57.03
X119.61Y-59.57
X119.61Y-62.11
X119.61Y-64.65
X119.61Y-67.19
X119.61Y-69.73
X119.61Y-72.27
X119.61Y-74.81
X119.61Y-77.35
X119.61Y-79.89
X119.61Y-82.43
X119.61Y-84.97
X119.61Y-87.51
X119.61Y-90.05
X119.61Y-92.59
X119.61Y-95.13
X137.39Y-46.87
X137.39Y-49.41
X137.39Y-51.95
X137.39Y-54.49
X137.39Y-57.03
X137.39Y-59.57
X137.39Y-62.11
X137.39Y-64.65
X137.39Y-67.19
X137.39Y-69.73
X137.39Y-72.27
X137.39Y-74.81
X137.39Y-77.35
X137.39Y-79.89
X137.39Y-82.43
X137.39Y-84.97
X137.39Y-87.51
X137.39Y-90.05
X137.39Y-92.59
X137.39Y-95.13
X151.5Y-64.96
X151.5Y-67.5
M30
